<svg xmlns="http://www.w3.org/2000/svg" xmlns:svg="http://www.w3.org/2000/svg" xmlns:xlink="http://www.w3.org/1999/xlink" id="svg2" width="18" height="18" class="uil-reload" preserveAspectRatio="xMidYMid" version="1.1" viewBox="0 0 100 100"><metadata id="metadata16"/><defs id="defs14"><filter id="filter5308" color-interpolation-filters="sRGB"><feFlood id="feFlood5310" flood-color="#146165" flood-opacity=".306" result="flood"/><feComposite id="feComposite5312" in="flood" in2="SourceGraphic" operator="in" result="composite1"/><feGaussianBlur id="feGaussianBlur5314" in="composite1" result="blur" stdDeviation=".6"/><feOffset id="feOffset5316" dx="0" dy="0" result="offset"/><feComposite id="feComposite5318" in="SourceGraphic" in2="offset" operator="over" result="composite2"/></filter><linearGradient id="linearGradient4728" x1="7.404" x2="8.793" y1="11.957" y2="4.078" gradientTransform="matrix(5.4711539,-0.96471207,0.96471207,5.4711539,-2.0423013,13.948263)" gradientUnits="userSpaceOnUse" xlink:href="#linearGradient4722"/><linearGradient id="linearGradient4722"><stop id="stop4724" offset="0" stop-color="#000" stop-opacity="1"/><stop id="stop4726" offset="1" stop-color="#fff" stop-opacity="1"/></linearGradient></defs><g id="g5946"><path id="path4692" fill="url(#linearGradient4728)" fill-opacity="1" stroke="none" stroke-dasharray="none" stroke-linecap="butt" stroke-linejoin="round" stroke-miterlimit="4" stroke-opacity="1" stroke-width=".987" d="M 42.958789,11.65493 A 38.890902,38.88687 35.007228 0 0 11.099443,56.48604 38.890902,38.88687 35.007228 0 0 55.930466,88.344927 38.890902,38.88687 35.007228 0 0 87.789809,43.513818 38.890902,38.88687 35.007228 0 0 42.958789,11.65493 Z m 1.854623,10.955555 A 27.779217,27.776337 34.979935 0 1 76.834315,45.368818 27.779217,27.776337 34.979935 0 1 54.075843,77.389372 27.779217,27.776337 34.979935 0 1 22.054942,54.63104 27.779217,27.776337 34.979935 0 1 44.813412,22.610485 Z" opacity="1"/><animateTransform attributeName="transform" dur="1s" from="0 50 50" repeatCount="indefinite" to="360 50 50" type="rotate"/></g></svg>